<svg xmlns="http://www.w3.org/2000/svg" viewBox="0 0 64 64" fill="none">
	<rect width="64" height="64" rx="14" fill="#161B22"/>
	<path d="M23.467 46V35.75l5.114.538a6.19 6.19 0 0 0 5.825-5.25V16.75C34.406 10.26 29.133 5 22.625 5 13.995 5 8 11.76 8 19.875c0 4.275 1 4.663 1.75 7.125.612 2.01.63 4.287.077 6.219L8 46" stroke="#F5F1EA" stroke-width="4" stroke-linecap="round" stroke-linejoin="round"/>
	<path d="M47.6 41.6a15 15 0 0 0 .006-21.206" stroke="#F5F1EA" stroke-width="4" stroke-linecap="round" stroke-linejoin="round"/>
	<path d="M42 36a7 7 0 0 0-.05-9.95" stroke="#F5F1EA" stroke-width="4" stroke-linecap="round" stroke-linejoin="round"/>
</svg>
